<svg width="116" height="116" viewBox="0 0 116 116" fill="none" xmlns="http://www.w3.org/2000/svg">
<path d="M58 72.5C68.0101 72.5 76.125 64.3851 76.125 54.375C76.125 44.3649 68.0101 36.25 58 36.25C47.9899 36.25 39.875 44.3649 39.875 54.375C39.875 64.3851 47.9899 72.5 58 72.5Z" stroke="#005EDB" stroke-width="2" stroke-miterlimit="10"/>
<path d="M28.9087 90.3415C31.6393 84.9729 35.8022 80.4645 40.9366 77.3154C46.0711 74.1668 51.9766 72.5 57.9999 72.5C64.0228 72.5 69.9283 74.1668 75.0627 77.3154C80.1972 80.4645 84.3601 84.9725 87.0909 90.3412" stroke="#005EDB" stroke-width="2" stroke-linecap="round" stroke-linejoin="round"/>
<path d="M79.75 25.375H101.5" stroke="#005EDB" stroke-width="2" stroke-linecap="round" stroke-linejoin="round"/>
<path d="M90.625 14.5V36.25" stroke="#005EDB" stroke-width="2" stroke-linecap="round" stroke-linejoin="round"/>
<path d="M100.899 50.7493C102.426 59.8339 101.027 69.169 96.9039 77.4068C92.7801 85.6442 86.1457 92.3585 77.9575 96.5794C69.7694 100.801 60.4517 102.311 51.3496 100.891C42.2476 99.4718 33.832 95.1965 27.3181 88.6824C20.8042 82.1686 16.5288 73.7532 15.1094 64.6508C13.6899 55.5488 15.1997 46.2311 19.4209 38.0429C23.6421 29.855 30.3561 23.2203 38.5936 19.0967C46.8314 14.9731 56.1665 13.5741 65.2512 15.1016" stroke="#005EDB" stroke-width="2" stroke-linecap="round" stroke-linejoin="round"/>
</svg>
