<svg width="16" height="10" viewBox="0 0 16 10" fill="none" xmlns="http://www.w3.org/2000/svg">
<path d="M2.71484 9.52734H9.00781C10.1855 9.52734 10.8887 8.84766 10.8887 7.67578V1.86914C10.8887 0.691406 10.2441 0.0117188 9.06641 0.0117188H2.71484C1.58984 0.0117188 0.833984 0.691406 0.833984 1.86914V7.67578C0.833984 8.84766 1.53711 9.52734 2.71484 9.52734ZM11.6855 6.49805L13.8184 8.34375C14.0176 8.51953 14.252 8.63086 14.4629 8.63086C14.9199 8.63086 15.2188 8.29688 15.2188 7.81641V1.72266C15.2188 1.24219 14.9199 0.908203 14.4629 0.908203C14.252 0.908203 14.0176 1.01953 13.8184 1.19531L11.6855 3.03516V6.49805Z" fill="black"/>
</svg>
