<svg width="14" height="13" viewBox="0 0 14 13" fill="none" xmlns="http://www.w3.org/2000/svg">
<path d="M0.904297 1.46094H12.7227C12.9629 1.46094 13.1328 1.27344 13.1328 1.01562C13.1328 0.757812 12.9629 0.576172 12.7227 0.576172H0.904297C0.658203 0.576172 0.494141 0.757812 0.494141 1.01562C0.494141 1.27344 0.658203 1.46094 0.904297 1.46094ZM1.63672 6.125H2.91406C3.62891 6.125 3.98633 5.76758 3.98633 5.02344V3.79883C3.98633 3.05469 3.62891 2.70312 2.91406 2.70312H1.63672C0.921875 2.70312 0.564453 3.05469 0.564453 3.79883V5.02344C0.564453 5.76758 0.921875 6.125 1.63672 6.125ZM6.17188 6.125H7.44922C8.16406 6.125 8.52148 5.76758 8.52148 5.02344V3.79883C8.52148 3.05469 8.16406 2.70312 7.44922 2.70312H6.17188C5.45703 2.70312 5.09961 3.05469 5.09961 3.79883V5.02344C5.09961 5.76758 5.45703 6.125 6.17188 6.125ZM10.707 6.125H11.9785C12.6934 6.125 13.0508 5.76758 13.0508 5.02344V3.79883C13.0508 3.05469 12.6934 2.70312 11.9785 2.70312H10.707C9.98633 2.70312 9.62891 3.05469 9.62891 3.79883V5.02344C9.62891 5.76758 9.98633 6.125 10.707 6.125ZM0.904297 8.1875H12.7227C12.9629 8.1875 13.1328 8.00586 13.1328 7.74805C13.1328 7.49023 12.9629 7.30273 12.7227 7.30273H0.904297C0.658203 7.30273 0.494141 7.49023 0.494141 7.74805C0.494141 8.00586 0.658203 8.1875 0.904297 8.1875ZM1.64258 12.8516H2.91992C3.63477 12.8516 3.99219 12.5 3.99219 11.7559V10.5254C3.99219 9.78125 3.63477 9.42969 2.91992 9.42969H1.64258C0.927734 9.42969 0.570312 9.78125 0.570312 10.5254V11.7559C0.570312 12.5 0.927734 12.8516 1.64258 12.8516ZM6.17773 12.8516H7.45508C8.16992 12.8516 8.52734 12.5 8.52734 11.7559V10.5254C8.52734 9.78125 8.16992 9.42969 7.45508 9.42969H6.17773C5.46289 9.42969 5.10547 9.78125 5.10547 10.5254V11.7559C5.10547 12.5 5.46289 12.8516 6.17773 12.8516ZM10.7129 12.8516H11.9844C12.7051 12.8516 13.0625 12.5 13.0625 11.7559V10.5254C13.0625 9.78125 12.7051 9.42969 11.9844 9.42969H10.7129C9.99805 9.42969 9.64062 9.78125 9.64062 10.5254V11.7559C9.64062 12.5 9.99805 12.8516 10.7129 12.8516Z" fill="black"/>
</svg>
