<svg width="164" height="160" viewBox="0 0 164 160" fill="none" xmlns="http://www.w3.org/2000/svg">
<g clip-path="url(#clip0)">
<path d="M0 8C0 3.58172 3.58172 0 8 0H156C160.418 0 164 3.58172 164 8V152C164 156.418 160.418 160 156 160H8C3.58172 160 0 156.418 0 152V8Z" fill="#FFD33F"/>
<path fill-rule="evenodd" clip-rule="evenodd" d="M356.502 17.1278C355.447 48.8916 361.701 85.6581 338.036 106.968C313.973 128.637 276.863 123.635 244.978 117.553C216.463 112.114 192.736 96.2977 172.646 75.4186C150.393 52.2909 126.117 26.9434 127.003 -5.05757C127.928 -38.4439 148.947 -69.406 177.157 -87.4577C202.932 -103.952 235.016 -97.7314 265.391 -93.6141C294.057 -89.7285 325.408 -87.1665 343.746 -64.877C362.053 -42.6256 357.457 -11.6071 356.502 17.1278Z" fill="#FFBF00"/>
<path fill-rule="evenodd" clip-rule="evenodd" d="M-12.0496 90.4808C5.64186 116.883 32.1889 143.077 25.4216 174.195C18.5402 205.838 -14.506 223.448 -43.9417 237.129C-70.2657 249.364 -98.7632 250.381 -127.264 245.162C-158.834 239.382 -193.343 232.981 -211.31 206.485C-230.056 178.843 -231.072 141.434 -218.713 110.307C-207.42 81.8657 -177.743 68.1801 -150.68 53.785C-125.14 40.1998 -98.1937 23.9725 -70.2908 31.3584C-42.4357 38.7317 -28.0541 66.5964 -12.0496 90.4808Z" fill="#FFBF00"/>
<path d="M19.6099 101H21.7515V96.4927H24.1255L26.4747 101H28.9234L26.3086 96.1689C27.7281 95.6543 28.5664 94.3428 28.5664 92.7573V92.7407C28.5664 90.458 27.0225 89.022 24.4493 89.022H19.6099V101ZM21.7515 94.8491V90.7568H24.1836C25.545 90.7568 26.3667 91.5371 26.3667 92.7905V92.8071C26.3667 94.0938 25.5782 94.8491 24.2251 94.8491H21.7515ZM34.1433 101.183C36.6086 101.183 37.8206 99.7632 38.1111 98.5928L38.136 98.5181H36.1687L36.1438 98.5762C35.9446 98.9912 35.3054 99.5557 34.1848 99.5557C32.782 99.5557 31.9021 98.6094 31.8772 96.9824H38.219V96.3018C38.219 93.5625 36.6252 91.7529 34.0437 91.7529C31.4622 91.7529 29.8103 93.6206 29.8103 96.4761V96.4844C29.8103 99.373 31.4456 101.183 34.1433 101.183ZM34.0686 93.3716C35.2224 93.3716 36.0608 94.1104 36.2019 95.5962H31.8938C32.0515 94.1519 32.9148 93.3716 34.0686 93.3716ZM39.6704 101H47.0249V99.4062H42.2851V99.2568L46.9502 93.3052V91.9272H39.7119V93.5293H44.5097V93.6704L39.6704 99.7383V101ZM52.5851 101.183C55.0505 101.183 56.2624 99.7632 56.5529 98.5928L56.5778 98.5181H54.6105L54.5856 98.5762C54.3864 98.9912 53.7472 99.5557 52.6266 99.5557C51.2238 99.5557 50.3439 98.6094 50.319 96.9824H56.6608V96.3018C56.6608 93.5625 55.0671 91.7529 52.4855 91.7529C49.904 91.7529 48.2521 93.6206 48.2521 96.4761V96.4844C48.2521 99.373 49.8874 101.183 52.5851 101.183ZM52.5104 93.3716C53.6642 93.3716 54.5026 94.1104 54.6437 95.5962H50.3356C50.4933 94.1519 51.3566 93.3716 52.5104 93.3716ZM58.3197 101H60.3866V95.729C60.3866 94.4341 61.2914 93.6123 62.6693 93.6123C63.0262 93.6123 63.3666 93.6621 63.6986 93.7285V91.8774C63.4994 91.8193 63.1757 91.7778 62.8602 91.7778C61.6649 91.7778 60.8348 92.3506 60.5277 93.3218H60.3866V91.9272H58.3197V101ZM67.5074 101H69.7735L72.9859 91.9272H70.8111L68.7276 98.9829H68.5865L66.4864 91.9272H64.2784L67.5074 101ZM76.4793 101.149C77.6746 101.149 78.6375 100.635 79.1355 99.7549H79.2767V101H81.3186V94.7993C81.3186 92.8818 80.0071 91.7529 77.6746 91.7529C75.5164 91.7529 74.0555 92.7656 73.8562 94.293L73.8479 94.3677H75.7986L75.8069 94.3345C76.0144 93.7368 76.6287 93.3965 77.575 93.3965C78.6873 93.3965 79.2767 93.8945 79.2767 94.7993V95.5796L76.9441 95.7207C74.7361 95.8535 73.4993 96.7998 73.4993 98.4185V98.4351C73.4993 100.087 74.7527 101.149 76.4793 101.149ZM75.5413 98.3354V98.3188C75.5413 97.5718 76.0809 97.1484 77.2347 97.0737L79.2767 96.9409V97.6714C79.2767 98.7505 78.3553 99.564 77.1101 99.564C76.1971 99.564 75.5413 99.1074 75.5413 98.3354ZM86.8208 101.183C89.0537 101.183 90.6724 100.029 90.6724 98.3022V98.2856C90.6724 96.9658 89.834 96.2104 88.0576 95.812L86.5884 95.4883C85.6089 95.2642 85.2271 94.9404 85.2271 94.4092V94.4009C85.2271 93.7202 85.8911 93.272 86.8125 93.272C87.7837 93.272 88.3813 93.7368 88.5308 94.3096L88.5391 94.3345H90.4814V94.3179C90.3486 92.8486 89.0288 91.7529 86.8208 91.7529C84.6792 91.7529 83.1851 92.8818 83.1851 94.5171V94.5254C83.1851 95.8618 84.0068 96.6753 85.7334 97.0571L87.2026 97.3892C88.1987 97.6133 88.5972 97.9619 88.5972 98.4932V98.5098C88.5972 99.1904 87.8833 99.6553 86.854 99.6553C85.8247 99.6553 85.2188 99.2153 85.0029 98.5845L84.9946 98.5679H82.9443V98.5845C83.1187 100.12 84.5132 101.183 86.8208 101.183ZM93.07 104.188C95.0788 104.188 96.1164 103.465 96.8967 101.191L100.151 91.9272H97.9758L95.8674 99.0161H95.7097L93.593 91.9272H91.3352L94.5808 101.008L94.4729 101.423C94.2487 102.245 93.7424 102.594 92.8957 102.594C92.6799 102.594 92.4475 102.585 92.2814 102.569V104.154C92.5305 104.179 92.821 104.188 93.07 104.188ZM105.072 101.183C107.786 101.183 109.438 99.4062 109.438 96.4678V96.4512C109.438 93.5293 107.778 91.7529 105.072 91.7529C102.374 91.7529 100.705 93.5376 100.705 96.4512V96.4678C100.705 99.4062 102.349 101.183 105.072 101.183ZM105.072 99.5059C103.636 99.5059 102.814 98.3853 102.814 96.4761V96.4595C102.814 94.5503 103.636 93.4214 105.072 93.4214C106.499 93.4214 107.321 94.5503 107.321 96.4595V96.4761C107.321 98.3853 106.508 99.5059 105.072 99.5059ZM111.105 101H113.172V95.7124C113.172 94.3511 113.936 93.4878 115.164 93.4878C116.418 93.4878 116.99 94.2017 116.99 95.6128V101H119.057V95.1313C119.057 92.9731 117.953 91.7529 115.928 91.7529C114.616 91.7529 113.745 92.3423 113.313 93.3135H113.172V91.9272H111.105V101ZM121.173 101H123.24V88.416H121.173V101ZM127.92 101.149C129.115 101.149 130.078 100.635 130.576 99.7549H130.717V101H132.759V94.7993C132.759 92.8818 131.448 91.7529 129.115 91.7529C126.957 91.7529 125.496 92.7656 125.297 94.293L125.289 94.3677H127.239L127.248 94.3345C127.455 93.7368 128.069 93.3965 129.016 93.3965C130.128 93.3965 130.717 93.8945 130.717 94.7993V95.5796L128.385 95.7207C126.177 95.8535 124.94 96.7998 124.94 98.4185V98.4351C124.94 100.087 126.193 101.149 127.92 101.149ZM126.982 98.3354V98.3188C126.982 97.5718 127.522 97.1484 128.675 97.0737L130.717 96.9409V97.6714C130.717 98.7505 129.796 99.564 128.551 99.564C127.638 99.564 126.982 99.1074 126.982 98.3354ZM134.833 101H136.9V95.729C136.9 94.4341 137.805 93.6123 139.183 93.6123C139.54 93.6123 139.88 93.6621 140.212 93.7285V91.8774C140.013 91.8193 139.689 91.7778 139.374 91.7778C138.178 91.7778 137.348 92.3506 137.041 93.3218H136.9V91.9272H134.833V101ZM141.522 101H143.589V91.9272H141.522V101Z" fill="white"/>
<path d="M55.9808 71.2988C59.4755 71.2988 61.642 68.8667 61.642 65.0151V64.9985C61.642 61.1387 59.4672 58.7231 55.9808 58.7231C52.5028 58.7231 50.3114 61.1387 50.3114 64.9985V65.0151C50.3114 68.8667 52.4696 71.2988 55.9808 71.2988ZM55.9808 69.4478C53.8226 69.4478 52.4945 67.7046 52.4945 65.0151V64.9985C52.4945 62.2925 53.8558 60.5742 55.9808 60.5742C58.1058 60.5742 59.4589 62.2925 59.4589 64.9985V65.0151C59.4589 67.7046 58.1141 69.4478 55.9808 69.4478ZM67.0445 71.0415C67.443 71.0415 67.8248 71.0083 68.1236 70.9502V69.3564C67.8746 69.3813 67.7169 69.3896 67.4264 69.3896C66.5631 69.3896 66.2061 69.0078 66.2061 68.103V63.5293H68.1236V61.9272H66.2061V59.7026H64.106V61.9272H62.6949V63.5293H64.106V68.5928C64.106 70.3442 64.961 71.0415 67.0445 71.0415ZM73.6092 71.1826C76.3235 71.1826 77.9754 69.4062 77.9754 66.4678V66.4512C77.9754 63.5293 76.3152 61.7529 73.6092 61.7529C70.9114 61.7529 69.243 63.5376 69.243 66.4512V66.4678C69.243 69.4062 70.8865 71.1826 73.6092 71.1826ZM73.6092 69.5059C72.1731 69.5059 71.3514 68.3853 71.3514 66.4761V66.4595C71.3514 64.5503 72.1731 63.4214 73.6092 63.4214C75.0369 63.4214 75.8587 64.5503 75.8587 66.4595V66.4761C75.8587 68.3853 75.0452 69.5059 73.6092 69.5059ZM79.6426 74.0132H81.7095V69.5557H81.8506C82.3237 70.5352 83.3613 71.1494 84.6064 71.1494C86.9058 71.1494 88.3335 69.3647 88.3335 66.4761V66.4595C88.3335 63.5874 86.8809 61.7778 84.6064 61.7778C83.3364 61.7778 82.3486 62.3589 81.8506 63.3467H81.7095V61.9272H79.6426V74.0132ZM83.959 69.4062C82.5562 69.4062 81.6846 68.2856 81.6846 66.4678V66.4512C81.6846 64.6333 82.5562 63.521 83.959 63.521C85.3701 63.521 86.2251 64.6333 86.2251 66.4595V66.4761C86.2251 68.2939 85.3701 69.4062 83.959 69.4062ZM92.4826 71.1494C93.6779 71.1494 94.6408 70.6348 95.1389 69.7549H95.28V71H97.322V64.7993C97.322 62.8818 96.0105 61.7529 93.6779 61.7529C91.5197 61.7529 90.0588 62.7656 89.8596 64.293L89.8513 64.3677H91.802L91.8103 64.3345C92.0178 63.7368 92.632 63.3965 93.5783 63.3965C94.6906 63.3965 95.28 63.8945 95.28 64.7993V65.5796L92.9475 65.7207C90.7395 65.8535 89.5026 66.7998 89.5026 68.4185V68.4351C89.5026 70.0869 90.7561 71.1494 92.4826 71.1494ZM91.5446 68.3354V68.3188C91.5446 67.5718 92.0842 67.1484 93.238 67.0737L95.28 66.9409V67.6714C95.28 68.7505 94.3586 69.564 93.1135 69.564C92.2004 69.564 91.5446 69.1074 91.5446 68.3354ZM99.3959 71H101.463V65.729C101.463 64.4341 102.368 63.6123 103.746 63.6123C104.102 63.6123 104.443 63.6621 104.775 63.7285V61.8774C104.576 61.8193 104.252 61.7778 103.936 61.7778C102.741 61.7778 101.911 62.3506 101.604 63.3218H101.463V61.9272H99.3959V71ZM106.143 71H108.21V67.8125L108.932 67.0737L111.846 71H114.336L110.435 65.7622L114.087 61.9272H111.696L108.351 65.646H108.21V58.416H106.143V71Z" fill="white"/>
</g>
<defs>
<clipPath id="clip0">
<path d="M0 8C0 3.58172 3.58172 0 8 0H156C160.418 0 164 3.58172 164 8V152C164 156.418 160.418 160 156 160H8C3.58172 160 0 156.418 0 152V8Z" fill="white"/>
</clipPath>
</defs>
</svg>
