<svg width="343" height="160" viewBox="0 0 343 160" fill="none" xmlns="http://www.w3.org/2000/svg">
<g clip-path="url(#clip0)">
<path d="M0 8C0 3.58172 3.58172 0 8 0H335C339.418 0 343 3.58172 343 8V152C343 156.418 339.418 160 335 160H7.99999C3.58172 160 0 156.418 0 152V8Z" fill="#3FA4FF"/>
<path fill-rule="evenodd" clip-rule="evenodd" d="M485.502 17.1278C484.447 48.8916 490.701 85.6581 467.036 106.968C442.973 128.637 405.863 123.635 373.978 117.553C345.463 112.114 321.736 96.2977 301.646 75.4186C279.393 52.2909 255.117 26.9434 256.003 -5.05757C256.928 -38.4439 277.947 -69.406 306.157 -87.4577C331.932 -103.952 364.016 -97.7314 394.391 -93.6141C423.057 -89.7285 454.408 -87.1665 472.746 -64.877C491.053 -42.6256 486.457 -11.6071 485.502 17.1278Z" fill="#007AFF"/>
<path fill-rule="evenodd" clip-rule="evenodd" d="M21.9504 74.4808C39.6419 100.883 66.1889 127.077 59.4216 158.195C52.5402 189.838 19.494 207.448 -9.94171 221.129C-36.2657 233.364 -64.7632 234.381 -93.264 229.162C-124.834 223.382 -159.343 216.981 -177.31 190.485C-196.056 162.843 -197.072 125.434 -184.713 94.3067C-173.42 65.8657 -143.743 52.1801 -116.68 37.785C-91.14 24.1998 -64.1937 7.97249 -36.2908 15.3584C-8.43575 22.7317 5.94589 50.5964 21.9504 74.4808Z" fill="#007AFF"/>
<path fill-rule="evenodd" clip-rule="evenodd" d="M303.091 55.4381C303.091 57.4053 304.686 59 306.653 59C308.62 59 310.215 57.4053 310.215 55.4381V50.7737L303.091 47.135V55.4381ZM311.768 40.0118L312.621 38.4645C312.728 38.2702 312.771 38.047 312.744 37.8266C312.717 37.6063 312.622 37.4001 312.471 37.2376C312.32 37.0751 312.122 36.9646 311.905 36.9219C311.688 36.8791 311.463 36.9063 311.263 36.9996L300.608 41.9528C300.429 42.0359 300.278 42.1676 300.17 42.3331C300.063 42.4986 300.004 42.6911 300 42.8887C299.997 43.0862 300.048 43.2808 300.15 43.4501C300.251 43.6195 300.398 43.7568 300.573 43.8464L311.038 49.1918C311.232 49.2933 311.452 49.3307 311.668 49.2985C311.884 49.2663 312.085 49.1661 312.24 49.0124L312.254 48.9987C312.413 48.8432 312.518 48.6406 312.553 48.4208C312.588 48.201 312.552 47.9757 312.449 47.7782L311.441 45.7775H318.443C326.505 45.7775 332 40.3999 332 32.4165V32.3611C332 24.35 326.505 19 318.443 19C309.964 19 303.091 25.8733 303.091 34.3519V39.0712L310.215 35.7595V31.31C310.215 27.7416 313.107 24.8489 316.676 24.8489C321.784 24.8489 324.766 27.5932 324.766 32.3888V32.4442C324.766 37.2398 321.784 40.0118 316.676 40.0118H311.768Z" fill="white"/>
</g>
<defs>
<clipPath id="clip0">
<path d="M0 8C0 3.58172 3.58172 0 8 0H335C339.418 0 343 3.58172 343 8V152C343 156.418 339.418 160 335 160H7.99999C3.58172 160 0 156.418 0 152V8Z" fill="white"/>
</clipPath>
</defs>
</svg>
