<svg width="164" height="160" viewBox="0 0 164 160" fill="none" xmlns="http://www.w3.org/2000/svg">
<g clip-path="url(#clip0)">
<path d="M0 8C0 3.58172 3.58172 0 8 0H156C160.418 0 164 3.58172 164 8V152C164 156.418 160.418 160 156 160H8C3.58172 160 0 156.418 0 152V8Z" fill="#E5E5EA"/>
<path fill-rule="evenodd" clip-rule="evenodd" d="M356.502 17.1278C355.447 48.8916 361.701 85.6581 338.036 106.968C313.973 128.637 276.863 123.635 244.978 117.553C216.463 112.114 192.736 96.2977 172.646 75.4186C150.393 52.2909 126.117 26.9434 127.003 -5.05757C127.928 -38.4439 148.947 -69.406 177.157 -87.4577C202.932 -103.952 235.016 -97.7314 265.391 -93.6141C294.057 -89.7285 325.408 -87.1665 343.746 -64.877C362.053 -42.6256 357.457 -11.6071 356.502 17.1278Z" fill="#C7C7CC"/>
<path fill-rule="evenodd" clip-rule="evenodd" d="M-12.0496 90.4808C5.64186 116.883 32.1889 143.077 25.4216 174.195C18.5402 205.838 -14.506 223.448 -43.9417 237.129C-70.2657 249.364 -98.7632 250.381 -127.264 245.162C-158.834 239.382 -193.343 232.981 -211.31 206.485C-230.056 178.843 -231.072 141.434 -218.713 110.307C-207.42 81.8657 -177.743 68.1801 -150.68 53.785C-125.14 40.1998 -98.1937 23.9725 -70.2908 31.3584C-42.4357 38.7317 -28.0541 66.5964 -12.0496 90.4808Z" fill="#C7C7CC"/>
<path d="M19.6099 101H21.7515V96.4927H24.1255L26.4747 101H28.9234L26.3086 96.1689C27.7281 95.6543 28.5664 94.3428 28.5664 92.7573V92.7407C28.5664 90.458 27.0225 89.022 24.4493 89.022H19.6099V101ZM21.7515 94.8491V90.7568H24.1836C25.545 90.7568 26.3667 91.5371 26.3667 92.7905V92.8071C26.3667 94.0938 25.5782 94.8491 24.2251 94.8491H21.7515ZM34.1433 101.183C36.6086 101.183 37.8206 99.7632 38.1111 98.5928L38.136 98.5181H36.1687L36.1438 98.5762C35.9446 98.9912 35.3054 99.5557 34.1848 99.5557C32.782 99.5557 31.9021 98.6094 31.8772 96.9824H38.219V96.3018C38.219 93.5625 36.6252 91.7529 34.0437 91.7529C31.4622 91.7529 29.8103 93.6206 29.8103 96.4761V96.4844C29.8103 99.373 31.4456 101.183 34.1433 101.183ZM34.0686 93.3716C35.2224 93.3716 36.0608 94.1104 36.2019 95.5962H31.8938C32.0515 94.1519 32.9148 93.3716 34.0686 93.3716ZM39.6704 101H47.0249V99.4062H42.2851V99.2568L46.9502 93.3052V91.9272H39.7119V93.5293H44.5097V93.6704L39.6704 99.7383V101ZM52.5851 101.183C55.0505 101.183 56.2624 99.7632 56.5529 98.5928L56.5778 98.5181H54.6105L54.5856 98.5762C54.3864 98.9912 53.7472 99.5557 52.6266 99.5557C51.2238 99.5557 50.3439 98.6094 50.319 96.9824H56.6608V96.3018C56.6608 93.5625 55.0671 91.7529 52.4855 91.7529C49.904 91.7529 48.2521 93.6206 48.2521 96.4761V96.4844C48.2521 99.373 49.8874 101.183 52.5851 101.183ZM52.5104 93.3716C53.6642 93.3716 54.5026 94.1104 54.6437 95.5962H50.3356C50.4933 94.1519 51.3566 93.3716 52.5104 93.3716ZM58.3197 101H60.3866V95.729C60.3866 94.4341 61.2914 93.6123 62.6693 93.6123C63.0262 93.6123 63.3666 93.6621 63.6986 93.7285V91.8774C63.4994 91.8193 63.1757 91.7778 62.8602 91.7778C61.6649 91.7778 60.8348 92.3506 60.5277 93.3218H60.3866V91.9272H58.3197V101ZM67.5074 101H69.7735L72.9859 91.9272H70.8111L68.7276 98.9829H68.5865L66.4864 91.9272H64.2784L67.5074 101ZM76.4793 101.149C77.6746 101.149 78.6375 100.635 79.1355 99.7549H79.2767V101H81.3186V94.7993C81.3186 92.8818 80.0071 91.7529 77.6746 91.7529C75.5164 91.7529 74.0555 92.7656 73.8562 94.293L73.8479 94.3677H75.7986L75.8069 94.3345C76.0144 93.7368 76.6287 93.3965 77.575 93.3965C78.6873 93.3965 79.2767 93.8945 79.2767 94.7993V95.5796L76.9441 95.7207C74.7361 95.8535 73.4993 96.7998 73.4993 98.4185V98.4351C73.4993 100.087 74.7527 101.149 76.4793 101.149ZM75.5413 98.3354V98.3188C75.5413 97.5718 76.0809 97.1484 77.2347 97.0737L79.2767 96.9409V97.6714C79.2767 98.7505 78.3553 99.564 77.1101 99.564C76.1971 99.564 75.5413 99.1074 75.5413 98.3354ZM86.8208 101.183C89.0537 101.183 90.6724 100.029 90.6724 98.3022V98.2856C90.6724 96.9658 89.834 96.2104 88.0576 95.812L86.5884 95.4883C85.6089 95.2642 85.2271 94.9404 85.2271 94.4092V94.4009C85.2271 93.7202 85.8911 93.272 86.8125 93.272C87.7837 93.272 88.3813 93.7368 88.5308 94.3096L88.5391 94.3345H90.4814V94.3179C90.3486 92.8486 89.0288 91.7529 86.8208 91.7529C84.6792 91.7529 83.1851 92.8818 83.1851 94.5171V94.5254C83.1851 95.8618 84.0068 96.6753 85.7334 97.0571L87.2026 97.3892C88.1987 97.6133 88.5972 97.9619 88.5972 98.4932V98.5098C88.5972 99.1904 87.8833 99.6553 86.854 99.6553C85.8247 99.6553 85.2188 99.2153 85.0029 98.5845L84.9946 98.5679H82.9443V98.5845C83.1187 100.12 84.5132 101.183 86.8208 101.183ZM93.07 104.188C95.0788 104.188 96.1164 103.465 96.8967 101.191L100.151 91.9272H97.9758L95.8674 99.0161H95.7097L93.593 91.9272H91.3352L94.5808 101.008L94.4729 101.423C94.2487 102.245 93.7424 102.594 92.8957 102.594C92.6799 102.594 92.4475 102.585 92.2814 102.569V104.154C92.5305 104.179 92.821 104.188 93.07 104.188ZM105.072 101.183C107.786 101.183 109.438 99.4062 109.438 96.4678V96.4512C109.438 93.5293 107.778 91.7529 105.072 91.7529C102.374 91.7529 100.705 93.5376 100.705 96.4512V96.4678C100.705 99.4062 102.349 101.183 105.072 101.183ZM105.072 99.5059C103.636 99.5059 102.814 98.3853 102.814 96.4761V96.4595C102.814 94.5503 103.636 93.4214 105.072 93.4214C106.499 93.4214 107.321 94.5503 107.321 96.4595V96.4761C107.321 98.3853 106.508 99.5059 105.072 99.5059ZM111.105 101H113.172V95.7124C113.172 94.3511 113.936 93.4878 115.164 93.4878C116.418 93.4878 116.99 94.2017 116.99 95.6128V101H119.057V95.1313C119.057 92.9731 117.953 91.7529 115.928 91.7529C114.616 91.7529 113.745 92.3423 113.313 93.3135H113.172V91.9272H111.105V101ZM121.173 101H123.24V88.416H121.173V101ZM127.92 101.149C129.115 101.149 130.078 100.635 130.576 99.7549H130.717V101H132.759V94.7993C132.759 92.8818 131.448 91.7529 129.115 91.7529C126.957 91.7529 125.496 92.7656 125.297 94.293L125.289 94.3677H127.239L127.248 94.3345C127.455 93.7368 128.069 93.3965 129.016 93.3965C130.128 93.3965 130.717 93.8945 130.717 94.7993V95.5796L128.385 95.7207C126.177 95.8535 124.94 96.7998 124.94 98.4185V98.4351C124.94 100.087 126.193 101.149 127.92 101.149ZM126.982 98.3354V98.3188C126.982 97.5718 127.522 97.1484 128.675 97.0737L130.717 96.9409V97.6714C130.717 98.7505 129.796 99.564 128.551 99.564C127.638 99.564 126.982 99.1074 126.982 98.3354ZM134.833 101H136.9V95.729C136.9 94.4341 137.805 93.6123 139.183 93.6123C139.54 93.6123 139.88 93.6621 140.212 93.7285V91.8774C140.013 91.8193 139.689 91.7778 139.374 91.7778C138.178 91.7778 137.348 92.3506 137.041 93.3218H136.9V91.9272H134.833V101ZM141.522 101H143.589V91.9272H141.522V101Z" fill="white"/>
<path d="M63.8771 71H66.1183L67.1144 67.9038H71.5471L72.5515 71H74.7927L70.5427 59.022H68.1271L63.8771 71ZM69.2643 61.2466H69.4055L71.0158 66.252H67.654L69.2643 61.2466ZM76.2274 71H78.2943V65.729C78.2943 64.4341 79.1991 63.6123 80.577 63.6123C80.934 63.6123 81.2743 63.6621 81.6063 63.7285V61.8774C81.4071 61.8193 81.0834 61.7778 80.768 61.7778C79.5727 61.7778 78.7426 62.3506 78.4354 63.3218H78.2943V61.9272H76.2274V71ZM85.2491 71.1494C86.4444 71.1494 87.4073 70.6348 87.9054 69.7549H88.0465V71H90.0885V64.7993C90.0885 62.8818 88.777 61.7529 86.4444 61.7529C84.2862 61.7529 82.8253 62.7656 82.6261 64.293L82.6178 64.3677H84.5685L84.5768 64.3345C84.7843 63.7368 85.3985 63.3965 86.3448 63.3965C87.4571 63.3965 88.0465 63.8945 88.0465 64.7993V65.5796L85.714 65.7207C83.506 65.8535 82.2691 66.7998 82.2691 68.4185V68.4351C82.2691 70.0869 83.5226 71.1494 85.2491 71.1494ZM84.3111 68.3354V68.3188C84.3111 67.5718 84.8507 67.1484 86.0045 67.0737L88.0465 66.9409V67.6714C88.0465 68.7505 87.1251 69.564 85.88 69.564C84.9669 69.564 84.3111 69.1074 84.3111 68.3354ZM95.6736 75.1006C97.0433 75.1006 98.139 74.5527 98.139 73.3491V73.3325C98.139 72.4194 97.4251 71.8218 96.3792 71.7886L96.8524 71.1245C98.6619 70.8672 99.7327 69.7217 99.9901 68.0864L100.007 68.02L98.056 68.0283L98.0394 68.0615C97.782 69.0161 97.1263 69.5059 96.0555 69.5059C94.6526 69.5059 93.8143 68.377 93.8143 66.4512V66.4346C93.8143 64.5337 94.6443 63.4214 96.0555 63.4214C97.1844 63.4214 97.8568 64.0522 98.0477 64.9321L98.056 64.957H100.007V64.9238C99.7742 63.0479 98.3797 61.7529 96.0472 61.7529C93.3162 61.7529 91.7142 63.5044 91.7142 66.4346V66.4512C91.7142 69.1821 93.0838 70.9004 95.4412 71.1494L94.8685 71.9712V72.7681H95.1839C95.9642 72.7681 96.3709 72.9092 96.3709 73.3906V73.4072C96.3709 73.8472 95.848 73.9966 95.3582 73.9966C94.91 73.9966 94.4949 73.9219 94.3621 73.8804V74.9512C94.744 75.0425 95.2005 75.1006 95.6736 75.1006Z" fill="white"/>
</g>
<defs>
<clipPath id="clip0">
<path d="M0 8C0 3.58172 3.58172 0 8 0H156C160.418 0 164 3.58172 164 8V152C164 156.418 160.418 160 156 160H8C3.58172 160 0 156.418 0 152V8Z" fill="white"/>
</clipPath>
</defs>
</svg>
