<svg width="116" height="116" viewBox="0 0 116 116" fill="none" xmlns="http://www.w3.org/2000/svg">
<path d="M58 61.625C66.008 61.625 72.5 55.133 72.5 47.125C72.5 39.117 66.008 32.625 58 32.625C49.992 32.625 43.5 39.117 43.5 47.125C43.5 55.133 49.992 61.625 58 61.625Z" stroke="#007AFF" stroke-width="2" stroke-linecap="round" stroke-linejoin="round"/>
<path d="M94.25 47.125C94.25 79.75 58 105.125 58 105.125C58 105.125 21.75 79.75 21.75 47.125C21.75 37.5108 25.5692 28.2906 32.3674 21.4924C39.1656 14.6942 48.3858 10.875 58 10.875C67.6142 10.875 76.8344 14.6942 83.6327 21.4924C90.4307 28.2906 94.25 37.5108 94.25 47.125Z" stroke="#007AFF" stroke-width="2" stroke-linecap="round" stroke-linejoin="round"/>
</svg>
