<svg width="196" height="265" viewBox="0 0 196 265" fill="none" xmlns="http://www.w3.org/2000/svg">
<mask id="mask0" mask-type="alpha" maskUnits="userSpaceOnUse" x="30" y="0" width="136" height="170">
<path fill-rule="evenodd" clip-rule="evenodd" d="M43.1186 153.984C43.1186 162.333 49.8868 169.102 58.2358 169.102C66.5848 169.102 73.353 162.333 73.353 153.984V141.152V134.324L43.1186 118.942V153.984ZM79.9465 88.8281L83.5659 82.2869C84.0202 81.4656 84.2032 80.5219 84.0888 79.5903C83.9745 78.6588 83.5685 77.7873 82.9292 77.1001C82.2898 76.4132 81.4495 75.946 80.5286 75.7654C79.6077 75.5846 78.6531 75.6998 77.8015 76.094L32.5805 97.034C31.8226 97.385 31.1787 97.9421 30.7225 98.6417C30.2663 99.3413 30.0162 100.155 30.0008 100.99C29.9853 101.825 30.2052 102.648 30.6352 103.364C31.0652 104.08 31.6881 104.66 32.4325 105.039L76.8485 127.637C77.6698 128.066 78.6062 128.224 79.5229 128.088C80.4396 127.952 81.2896 127.528 81.9508 126.879C81.9705 126.86 81.9904 126.84 82.0098 126.821C82.6832 126.163 83.1271 125.307 83.2763 124.378C83.4252 123.448 83.2714 122.496 82.8374 121.661L78.5581 113.203H108.275C142.494 113.203 165.814 90.4688 165.814 56.7188V56.4844C165.814 22.6172 142.494 0 108.275 0H63.1186C52.0729 0 43.1186 8.95431 43.1186 20V84.8517L73.353 70.8513V52.1484C73.353 37.0038 85.6302 24.7266 100.775 24.7266C122.455 24.7266 135.111 36.3281 135.111 56.6016V56.8359C135.111 77.1094 122.455 88.8281 100.775 88.8281H79.9465Z" fill="white"/>
</mask>
<g mask="url(#mask0)">
<ellipse cx="117.658" cy="11.1016" rx="182.5" ry="186" fill="#FFD33F"/>
<ellipse cx="138.658" cy="-44.8984" rx="182.5" ry="186" fill="#99D8FF"/>
<ellipse cx="117.658" cy="-108.898" rx="182.5" ry="186" fill="#CCEEFF"/>
<path d="M40.1575 91.1016L82.6575 66.6016L40.1575 41.6016C35.9909 48.2682 27.4575 62.0016 26.6575 63.6016C25.8575 65.2016 35.3242 82.6016 40.1575 91.1016Z" fill="#CCEEFF"/>
</g>
<path d="M10.6777 228.48C11.2751 230.656 12.3844 232.235 14.0057 233.216C15.6271 234.197 17.6324 234.688 20.0217 234.688C21.8137 234.688 23.4564 234.432 24.9498 233.92C26.4858 233.365 27.7231 232.789 28.6618 232.192C29.2591 232.533 29.7498 233.003 30.1338 233.6C30.5178 234.197 30.7098 234.837 30.7098 235.52C30.7098 236.373 30.4111 237.141 29.8138 237.824C29.2591 238.464 28.4698 239.019 27.4458 239.488C26.4644 239.957 25.2911 240.32 23.9258 240.576C22.5604 240.832 21.0884 240.96 19.5098 240.96C16.9924 240.96 14.6884 240.619 12.5977 239.936C10.5497 239.253 8.77908 238.229 7.28575 236.864C5.83508 235.456 4.68308 233.728 3.82975 231.68C3.01908 229.632 2.61375 227.243 2.61375 224.512C2.61375 221.867 3.01908 219.563 3.82975 217.6C4.64042 215.637 5.72842 213.995 7.09375 212.672C8.50175 211.349 10.1231 210.368 11.9577 209.728C13.7924 209.088 15.7338 208.768 17.7817 208.768C19.8724 208.768 21.7924 209.109 23.5417 209.792C25.2911 210.432 26.7844 211.349 28.0217 212.544C29.2591 213.696 30.2191 215.104 30.9018 216.768C31.6271 218.389 31.9897 220.16 31.9897 222.08C31.9897 223.275 31.6698 224.171 31.0298 224.768C30.4324 225.365 29.5791 225.749 28.4698 225.92L10.6777 228.48ZM17.7817 214.848C15.6911 214.848 13.9417 215.552 12.5337 216.96C11.1257 218.325 10.3364 220.288 10.1657 222.848L24.3738 220.736C24.2031 219.157 23.5844 217.792 22.5177 216.64C21.4511 215.445 19.8724 214.848 17.7817 214.848ZM61.5773 209.024C62.6866 209.024 63.6039 209.28 64.3293 209.792C65.0973 210.304 65.4813 211.157 65.4813 212.352C65.4813 212.907 65.3106 213.803 64.9693 215.04C64.6706 216.277 64.2439 217.707 63.6893 219.328C63.1773 220.949 62.5799 222.699 61.8973 224.576C61.2146 226.453 60.5106 228.309 59.7853 230.144C59.0599 231.936 58.3346 233.643 57.6093 235.264C56.8839 236.885 56.2226 238.251 55.6253 239.36C55.1986 239.701 54.5586 239.979 53.7053 240.192C52.8519 240.405 51.9133 240.512 50.8893 240.512C49.6519 240.512 48.5853 240.341 47.6893 240C46.8359 239.701 46.2173 239.189 45.8333 238.464C45.4493 237.739 44.9799 236.736 44.4253 235.456C43.8706 234.176 43.2733 232.725 42.6333 231.104C41.9933 229.483 41.3319 227.776 40.6493 225.984C39.9666 224.149 39.3053 222.336 38.6653 220.544C38.0679 218.752 37.4919 217.024 36.9373 215.36C36.4253 213.696 35.9986 212.203 35.6573 210.88C36.0839 210.368 36.6813 209.941 37.4493 209.6C38.2599 209.216 39.0919 209.024 39.9453 209.024C41.0546 209.024 41.9506 209.28 42.6333 209.792C43.3586 210.304 43.9133 211.221 44.2973 212.544L47.4973 223.104C47.7533 223.957 48.0306 224.875 48.3293 225.856C48.6706 226.795 48.9906 227.733 49.2893 228.672C49.5879 229.568 49.8653 230.443 50.1213 231.296C50.4199 232.107 50.6546 232.789 50.8253 233.344H51.0813C52.3186 229.589 53.5346 225.728 54.7293 221.76C55.9239 217.749 56.9693 213.803 57.8653 209.92C58.3773 209.621 58.9533 209.408 59.5933 209.28C60.2759 209.109 60.9373 209.024 61.5773 209.024ZM85.4928 240.896C84.2554 240.896 83.1034 240.768 82.0368 240.512C81.0128 240.299 80.0741 240.021 79.2208 239.68V251.456C78.8368 251.541 78.3248 251.648 77.6848 251.776C77.0448 251.904 76.3194 251.968 75.5088 251.968C74.0154 251.968 72.9061 251.691 72.1808 251.136C71.4554 250.581 71.0928 249.6 71.0928 248.192V215.744C71.0928 214.72 71.2848 213.888 71.6688 213.248C72.0954 212.608 72.7568 212.011 73.6528 211.456C74.8901 210.731 76.4261 210.112 78.2608 209.6C80.0954 209.045 82.1648 208.768 84.4688 208.768C86.8154 208.768 88.9701 209.088 90.9328 209.728C92.9381 210.325 94.6661 211.285 96.1168 212.608C97.5674 213.888 98.6981 215.531 99.5088 217.536C100.319 219.541 100.725 221.931 100.725 224.704C100.725 227.392 100.341 229.739 99.5728 231.744C98.8048 233.749 97.7381 235.435 96.3728 236.8C95.0501 238.165 93.4501 239.189 91.5728 239.872C89.7381 240.555 87.7114 240.896 85.4928 240.896ZM84.2768 234.432C86.8368 234.432 88.8421 233.643 90.2928 232.064C91.7434 230.485 92.4688 228.032 92.4688 224.704C92.4688 221.248 91.7221 218.795 90.2288 217.344C88.7354 215.893 86.8154 215.168 84.4688 215.168C83.3168 215.168 82.2928 215.317 81.3968 215.616C80.5434 215.915 79.7968 216.235 79.1568 216.576V233.024C79.8394 233.451 80.5861 233.792 81.3968 234.048C82.2501 234.304 83.2101 234.432 84.2768 234.432ZM119.502 234.816C120.739 234.816 121.87 234.709 122.894 234.496C123.918 234.24 124.664 233.941 125.134 233.6V226.496L118.926 227.072C117.219 227.243 115.918 227.627 115.022 228.224C114.126 228.779 113.678 229.675 113.678 230.912C113.678 232.149 114.126 233.109 115.022 233.792C115.96 234.475 117.454 234.816 119.502 234.816ZM119.246 208.768C123.427 208.768 126.755 209.664 129.23 211.456C131.747 213.248 133.006 216.021 133.006 219.776V234.56C133.006 235.584 132.75 236.395 132.238 236.992C131.726 237.589 131.086 238.123 130.318 238.592C129.123 239.317 127.608 239.893 125.774 240.32C123.939 240.747 121.848 240.96 119.502 240.96C115.235 240.96 111.864 240.149 109.39 238.528C106.958 236.864 105.742 234.389 105.742 231.104C105.742 228.245 106.638 226.069 108.43 224.576C110.264 223.04 112.91 222.101 116.366 221.76L125.134 220.864V219.712C125.134 218.091 124.536 216.896 123.342 216.128C122.19 215.36 120.547 214.976 118.414 214.976C116.75 214.976 115.128 215.189 113.55 215.616C111.971 216 110.563 216.491 109.326 217.088C108.856 216.747 108.451 216.299 108.11 215.744C107.811 215.147 107.662 214.507 107.662 213.824C107.662 212.971 107.854 212.288 108.238 211.776C108.664 211.221 109.326 210.731 110.222 210.304C111.459 209.792 112.867 209.408 114.446 209.152C116.024 208.896 117.624 208.768 119.246 208.768ZM149.165 239.936C148.781 240.021 148.269 240.128 147.629 240.256C146.989 240.384 146.264 240.448 145.453 240.448C143.96 240.448 142.851 240.171 142.125 239.616C141.4 239.061 141.037 238.08 141.037 236.672V216.384C141.037 215.275 141.293 214.336 141.805 213.568C142.317 212.8 143.064 212.117 144.045 211.52C145.368 210.709 146.989 210.048 148.909 209.536C150.872 209.024 152.984 208.768 155.245 208.768C159.299 208.768 161.325 210.027 161.325 212.544C161.325 213.141 161.219 213.717 161.005 214.272C160.835 214.784 160.643 215.211 160.429 215.552C159.448 215.339 158.232 215.232 156.781 215.232C155.288 215.232 153.88 215.403 152.557 215.744C151.235 216.085 150.104 216.512 149.165 217.024V239.936ZM174.797 239.936C174.413 240.021 173.901 240.128 173.261 240.256C172.621 240.384 171.895 240.448 171.085 240.448C169.591 240.448 168.482 240.171 167.757 239.616C167.031 239.061 166.669 238.08 166.669 236.672V198.4C167.01 198.272 167.501 198.165 168.141 198.08C168.823 197.952 169.57 197.888 170.381 197.888C171.874 197.888 172.983 198.165 173.709 198.72C174.434 199.275 174.797 200.256 174.797 201.664V221.504L187.213 209.152C188.834 209.152 190.135 209.515 191.117 210.24C192.098 210.965 192.589 211.883 192.589 212.992C192.589 213.973 192.269 214.827 191.629 215.552C191.031 216.277 190.071 217.195 188.749 218.304L181.837 224.32L194.061 235.776C193.89 237.269 193.442 238.443 192.717 239.296C191.991 240.107 190.946 240.512 189.581 240.512C188.599 240.512 187.725 240.277 186.957 239.808C186.231 239.339 185.335 238.507 184.269 237.312L174.797 226.816V239.936Z" fill="#66BDFF"/>
</svg>
