<svg width="136" height="170" viewBox="0 0 136 170" fill="none" xmlns="http://www.w3.org/2000/svg">
<path fill-rule="evenodd" clip-rule="evenodd" d="M13.1186 153.984C13.1186 162.333 19.8868 169.102 28.2358 169.102C36.5848 169.102 43.353 162.333 43.353 153.984V134.324L13.1186 118.942V153.984ZM49.9465 88.8281L53.5659 82.2869C54.0202 81.4656 54.2032 80.5219 54.0888 79.5903C53.9745 78.6588 53.5685 77.7873 52.9292 77.1001C52.2898 76.4132 51.4495 75.946 50.5286 75.7654C49.6077 75.5846 48.6531 75.6998 47.8015 76.094L2.58053 97.034C1.82259 97.385 1.17872 97.9421 0.72252 98.6417C0.266322 99.3413 0.0161868 100.155 0.000762233 100.99C-0.0146939 101.825 0.205184 102.648 0.635223 103.364C1.06525 104.08 1.68809 104.66 2.43252 105.039L46.8485 127.637C47.6698 128.066 48.6062 128.224 49.5229 128.088C50.4396 127.952 51.2896 127.528 51.9508 126.879C51.9705 126.86 51.9904 126.84 52.0098 126.821C52.6832 126.163 53.1271 125.307 53.2763 124.378C53.4252 123.448 53.2714 122.496 52.8374 121.661L48.5581 113.203H78.2749C112.494 113.203 135.814 90.4688 135.814 56.7188V56.4844C135.814 22.6172 112.494 0 78.2749 0H33.1186C22.0729 0 13.1186 8.95431 13.1186 20V84.8517L43.353 70.8513V52.1484C43.353 37.0038 55.6302 24.7266 70.7749 24.7266C92.4545 24.7266 105.111 36.3281 105.111 56.6016V56.8359C105.111 77.1094 92.4545 88.8281 70.7749 88.8281H49.9465Z" fill="white"/>
</svg>
