<svg width="19" height="18" viewBox="0 0 19 18" fill="none" xmlns="http://www.w3.org/2000/svg">
<path d="M9.5 17.6895C14.2563 17.6895 18.1743 13.7632 18.1743 9.00684C18.1743 4.25049 14.248 0.33252 9.5 0.33252C4.74365 0.33252 0.825684 4.25049 0.825684 9.00684C0.825684 13.7632 4.74365 17.6895 9.5 17.6895ZM9.5 15.7388C5.77295 15.7388 2.78467 12.7339 2.78467 9.00684C2.78467 5.27979 5.76465 2.2832 9.5 2.2832C13.2271 2.2832 16.2236 5.27979 16.2319 9.00684C16.2319 12.7339 13.2271 15.7388 9.5 15.7388ZM7.47461 6.14307C7.47461 7.01465 8.02246 7.75342 8.80273 8.03564V11.9868C8.80273 13.0161 9.09326 14.0952 9.5 14.0952C9.89844 14.0952 10.189 13.0327 10.189 11.9868V8.03564C10.9692 7.76172 11.5171 7.01465 11.5171 6.14307C11.5171 5.02246 10.6123 4.10938 9.5 4.11768C8.37939 4.11768 7.47461 5.03076 7.47461 6.14307ZM8.31299 5.62842C8.30469 5.26318 8.62842 4.94775 8.98535 4.94775C9.35889 4.94775 9.66602 5.26318 9.66602 5.62842C9.66602 5.99365 9.35889 6.30908 8.98535 6.30908C8.62842 6.30908 8.31299 5.99365 8.31299 5.62842Z" fill="#8E8E93"/>
</svg>
