<svg width="19" height="18" viewBox="0 0 19 18" fill="none" xmlns="http://www.w3.org/2000/svg">
<path d="M9.5 17.6895C14.2563 17.6895 18.1743 13.7632 18.1743 9.00684C18.1743 4.25049 14.248 0.33252 9.5 0.33252C4.74365 0.33252 0.825684 4.25049 0.825684 9.00684C0.825684 13.7632 4.74365 17.6895 9.5 17.6895ZM9.5 15.7388C5.77295 15.7388 2.78467 12.7339 2.78467 9.00684C2.78467 5.27979 5.76465 2.2832 9.5 2.2832C13.2271 2.2832 16.2236 5.27979 16.2319 9.00684C16.2319 12.7339 13.2271 15.7388 9.5 15.7388ZM5.14209 11.6548C5.14209 11.9287 5.35791 12.1445 5.63184 12.1445H6.07178C6.3457 12.1445 6.55322 11.9287 6.55322 11.6548V11.0239C7.3501 11.0737 8.53711 11.1152 9.5 11.1152C10.4629 11.1152 11.6499 11.082 12.4468 11.0239V11.6548C12.4468 11.9287 12.6626 12.1445 12.9365 12.1445H13.3682C13.6504 12.1445 13.8579 11.9287 13.8579 11.6548V9.50488C13.8579 8.86572 13.75 8.50879 13.4097 8.06885L13.0859 7.67041C12.9531 7.02295 12.7124 6.34229 12.5962 6.08496C12.3887 5.65332 11.9985 5.396 11.4922 5.32959C11.2266 5.28809 10.4629 5.27148 9.5 5.27148C8.53711 5.27148 7.78174 5.28809 7.50781 5.32959C7.00977 5.3877 6.61133 5.65332 6.41211 6.08496C6.2876 6.34229 6.05518 7.02295 5.92236 7.67041L5.59863 8.06885C5.2583 8.50879 5.14209 8.86572 5.14209 9.50488V11.6548ZM7.00146 7.28027C7.07617 6.96484 7.20898 6.5498 7.30029 6.39209C7.3999 6.20117 7.51611 6.13477 7.73193 6.10156C7.95605 6.06836 8.52051 6.05176 9.5 6.05176C10.4795 6.05176 11.0439 6.06006 11.2681 6.10156C11.4922 6.13477 11.6001 6.20117 11.6997 6.39209C11.7993 6.5498 11.9321 6.96484 11.9985 7.28027C12.04 7.42969 11.9736 7.50439 11.8159 7.49609C11.3345 7.46289 10.7036 7.42969 9.5 7.42969C8.29639 7.42969 7.67383 7.46289 7.18408 7.49609C7.02637 7.50439 6.96826 7.42969 7.00146 7.28027ZM6.24609 9.48828C6.24609 9.13965 6.52002 8.88232 6.86035 8.88232C7.20068 8.88232 7.47461 9.13965 7.47461 9.48828C7.47461 9.83691 7.20068 10.0942 6.86035 10.0942C6.52002 10.0942 6.24609 9.83691 6.24609 9.48828ZM11.5337 9.48828C11.5337 9.13965 11.7993 8.88232 12.1396 8.88232C12.4883 8.88232 12.7539 9.13965 12.7539 9.48828C12.7539 9.83691 12.4883 10.0942 12.1396 10.0942C11.7993 10.0942 11.5337 9.83691 11.5337 9.48828ZM8.08887 9.50488C8.08887 9.24756 8.27148 9.06494 8.52881 9.06494H10.4712C10.7368 9.06494 10.9194 9.24756 10.9194 9.50488C10.9194 9.77051 10.7368 9.94482 10.4712 9.94482H8.52881C8.27148 9.94482 8.08887 9.77051 8.08887 9.50488Z" fill="#007AFF"/>
</svg>
