<svg width="32" height="32" viewBox="0 0 32 32" fill="none" xmlns="http://www.w3.org/2000/svg">
<path d="M16 29.3334C23.2941 29.3334 29.3333 23.2811 29.3333 16C29.3333 8.7059 23.281 2.66669 15.9869 2.66669C8.70584 2.66669 2.66663 8.7059 2.66663 16C2.66663 23.2811 8.71891 29.3334 16 29.3334ZM11.3856 21.6994C10.7973 21.6994 10.3137 21.2026 10.3137 20.6013C10.3137 20.3137 10.4313 20.0523 10.6274 19.8432L14.4575 16.0131L10.6274 12.183C10.4313 11.9739 10.3137 11.7124 10.3137 11.4249C10.3137 10.8236 10.7973 10.353 11.3856 10.353C11.6993 10.353 11.9477 10.4575 12.1438 10.6667L15.9869 14.4968L19.8692 10.6536C20.0915 10.4314 20.3268 10.3268 20.6143 10.3268C21.2026 10.3268 21.6862 10.8105 21.6862 11.3987C21.6862 11.6994 21.5947 11.9347 21.3725 12.17L17.5294 16.0131L21.3594 19.8301C21.5686 20.0523 21.6732 20.3007 21.6732 20.6013C21.6732 21.2026 21.1895 21.6994 20.5882 21.6994C20.2875 21.6994 20.0261 21.5686 19.817 21.3726L15.9869 17.5425L12.183 21.3726C11.9738 21.5817 11.6993 21.6994 11.3856 21.6994Z" fill="black"/>
</svg>
