<svg width="32" height="32" viewBox="0 0 32 32" fill="none" xmlns="http://www.w3.org/2000/svg">
<path d="M27.436 11.0542L6.27315 3.72847C5.91846 3.60567 5.53638 3.58516 5.17059 3.66929C4.80481 3.75341 4.47007 3.93877 4.20467 4.20418C3.93926 4.46958 3.7539 4.80432 3.66978 5.17011C3.58565 5.5359 3.60616 5.91798 3.72896 6.27266L11.0545 27.4357C11.1864 27.8307 11.4402 28.1738 11.7793 28.4156C12.1184 28.6574 12.5255 28.7854 12.942 28.7814C12.9543 28.7814 12.9669 28.7812 12.9792 28.781C13.4021 28.7783 13.8129 28.6395 14.1509 28.3854C14.4888 28.1312 14.7361 27.775 14.856 27.3695L17.8005 17.8002L27.3701 14.8557C27.7732 14.7316 28.1267 14.4833 28.3802 14.1462C28.6337 13.8091 28.7741 13.4005 28.7815 12.9788C28.7888 12.5571 28.6626 12.1439 28.4209 11.7983C28.1793 11.4526 27.8345 11.1922 27.436 11.0542Z" fill="black"/>
</svg>
