<svg width="20" height="21" viewBox="0 0 20 21" fill="none" xmlns="http://www.w3.org/2000/svg">
<path d="M10 20.9102C15.4492 20.9102 19.9609 16.3887 19.9609 10.9492C19.9609 5.5 15.4395 0.988281 9.99023 0.988281C4.55078 0.988281 0.0390625 5.5 0.0390625 10.9492C0.0390625 16.3887 4.56055 20.9102 10 20.9102ZM10 19.25C5.39062 19.25 1.70898 15.5586 1.70898 10.9492C1.70898 6.33984 5.38086 2.64844 9.99023 2.64844C14.5996 2.64844 18.291 6.33984 18.3008 10.9492C18.3105 15.5586 14.6094 19.25 10 19.25ZM5.43945 12.375C6.2207 12.375 6.85547 11.7305 6.85547 10.9492C6.85547 10.168 6.21094 9.52344 5.43945 9.52344C4.64844 9.52344 4.01367 10.168 4.01367 10.9492C4.01367 11.7305 4.64844 12.375 5.43945 12.375ZM9.99023 12.375C10.7715 12.375 11.416 11.7305 11.416 10.9492C11.416 10.168 10.7715 9.52344 9.99023 9.52344C9.20898 9.52344 8.56445 10.168 8.56445 10.9492C8.56445 11.7305 9.20898 12.375 9.99023 12.375ZM14.5508 12.375C15.332 12.375 15.9668 11.7305 15.9668 10.9492C15.9668 10.168 15.332 9.52344 14.5508 9.52344C13.7598 9.52344 13.125 10.168 13.125 10.9492C13.125 11.7305 13.7598 12.375 14.5508 12.375Z" fill="#AEAEB2"/>
</svg>
