<svg width="30" height="28" viewBox="0 0 30 28" fill="none" xmlns="http://www.w3.org/2000/svg">
<path d="M15 23.9102C20.4492 23.9102 24.9609 19.3887 24.9609 13.9492C24.9609 8.5 20.4395 3.98828 14.9902 3.98828C9.55078 3.98828 5.03906 8.5 5.03906 13.9492C5.03906 19.3887 9.56055 23.9102 15 23.9102ZM10.293 15.4141C9.48242 15.4141 8.81836 14.7598 8.81836 13.9395C8.81836 13.1289 9.48242 12.4746 10.293 12.4746C11.0938 12.4746 11.7578 13.1289 11.7578 13.9395C11.7578 14.7598 11.1035 15.4141 10.293 15.4141ZM14.9902 15.4141C14.1797 15.4141 13.5156 14.7598 13.5156 13.9395C13.5156 13.1289 14.1797 12.4746 14.9902 12.4746C15.8008 12.4746 16.4648 13.1289 16.4648 13.9395C16.4648 14.7598 15.8008 15.4141 14.9902 15.4141ZM19.6973 15.4141C18.877 15.4141 18.2227 14.7598 18.2227 13.9395C18.2227 13.1289 18.877 12.4746 19.6973 12.4746C20.498 12.4746 21.1621 13.1289 21.1621 13.9395C21.1621 14.7598 20.498 15.4141 19.6973 15.4141Z" fill="#007AFF"/>
</svg>
