<svg width="18" height="19" viewBox="0 0 18 19" fill="none" xmlns="http://www.w3.org/2000/svg">
<path d="M10.187 17.7642L16.6035 14.0454C17.334 13.6221 17.6826 13.2402 17.6826 12.6426C17.6826 12.0532 17.334 11.6631 16.6035 11.2397L12.9512 9.12305L16.6035 7.00635C17.334 6.58301 17.6826 6.20117 17.6826 5.60352C17.6826 5.01416 17.334 4.62402 16.6035 4.20068L10.187 0.481934C9.72217 0.208008 9.36523 0.0751953 8.9917 0.0751953C8.62646 0.0751953 8.26953 0.208008 7.80469 0.481934L1.38818 4.20068C0.657715 4.62402 0.309082 5.01416 0.309082 5.60352C0.309082 6.20117 0.657715 6.58301 1.38818 7.00635L5.04053 9.12305L1.38818 11.2397C0.657715 11.6631 0.309082 12.0532 0.309082 12.6426C0.309082 13.2402 0.657715 13.6221 1.38818 14.0454L7.80469 17.7642C8.26953 18.0381 8.62646 18.1709 8.9917 18.1709C9.36523 18.1709 9.72217 18.0381 10.187 17.7642ZM8.9917 11.1318C9.36523 11.1318 9.72217 10.999 10.187 10.7251L11.0752 10.2104L15.2173 12.5679C15.2505 12.5845 15.2754 12.6094 15.2754 12.6426C15.2754 12.6841 15.2505 12.7007 15.2173 12.7256L9.30713 16.0791C9.18262 16.1455 9.09131 16.1787 8.9917 16.1787C8.89209 16.1787 8.80078 16.1455 8.68457 16.0791L2.77441 12.7256C2.73291 12.7007 2.71631 12.6841 2.71631 12.6426C2.71631 12.6094 2.73291 12.5845 2.77441 12.5679L6.9165 10.2104L7.80469 10.7251C8.26953 10.999 8.62646 11.1318 8.9917 11.1318Z" fill="#007AFF"/>
</svg>
