<svg width="30" height="28" viewBox="0 0 30 28" fill="none" xmlns="http://www.w3.org/2000/svg">
<path d="M15 23.9102C20.4492 23.9102 24.9609 19.3887 24.9609 13.9492C24.9609 8.5 20.4395 3.98828 14.9902 3.98828C9.55078 3.98828 5.03906 8.5 5.03906 13.9492C5.03906 19.3887 9.56055 23.9102 15 23.9102ZM15 17.2793C12.0703 17.2793 9.80469 18.3242 8.81836 19.4961C7.5 18.0312 6.70898 16.0879 6.70898 13.9492C6.70898 9.33984 10.3809 5.64844 14.9902 5.64844C19.5996 5.64844 23.291 9.33984 23.3008 13.9492C23.3105 16.0879 22.5098 18.0312 21.1914 19.5059C20.2051 18.334 17.9395 17.2793 15 17.2793ZM15 15.6191C16.875 15.6387 18.3496 14.0371 18.3496 11.9375C18.3496 9.96484 16.875 8.32422 15 8.32422C13.125 8.32422 11.6406 9.96484 11.6504 11.9375C11.6602 14.0371 13.125 15.5996 15 15.6191Z" fill="#AEAEB2"/>
</svg>
