<svg width="32" height="32" viewBox="0 0 32 32" fill="none" xmlns="http://www.w3.org/2000/svg">
<path d="M16 20C18.7614 20 21 17.7614 21 15C21 12.2386 18.7614 10 16 10C13.2386 10 11 12.2386 11 15C11 17.7614 13.2386 20 16 20Z" stroke="black" stroke-width="2" stroke-miterlimit="10"/>
<path d="M7.97485 24.9218C8.72812 23.4408 9.8765 22.1971 11.2929 21.3284C12.7093 20.4598 14.3384 20 16 20C17.6615 20 19.2906 20.4598 20.707 21.3284C22.1234 22.1971 23.2718 23.4407 24.0251 24.9217" stroke="black" stroke-width="2" stroke-linecap="round" stroke-linejoin="round"/>
<path d="M22 7H28" stroke="black" stroke-width="2" stroke-linecap="round" stroke-linejoin="round"/>
<path d="M25 4V10" stroke="black" stroke-width="2" stroke-linecap="round" stroke-linejoin="round"/>
<path d="M27.8342 13.9998C28.2555 16.5059 27.8696 19.0811 26.7321 21.3536C25.5945 23.626 23.7643 25.4782 21.5055 26.6426C19.2467 27.8071 16.6763 28.2236 14.1654 27.832C11.6545 27.4405 9.33296 26.2611 7.53601 24.4641C5.73906 22.6672 4.55966 20.3457 4.16808 17.8347C3.7765 15.3238 4.19301 12.7534 5.35747 10.4946C6.52193 8.23587 8.37409 6.40559 10.6465 5.26805C12.919 4.13051 15.4942 3.74458 18.0003 4.16596" stroke="black" stroke-width="2" stroke-linecap="round" stroke-linejoin="round"/>
</svg>
