<svg width="18" height="18" viewBox="0 0 18 18" fill="none" xmlns="http://www.w3.org/2000/svg">
<path d="M8.95264 17.4736C13.5845 17.4736 17.4194 13.6304 17.4194 9.00684C17.4194 4.375 13.5762 0.540039 8.94434 0.540039C4.3208 0.540039 0.48584 4.375 0.48584 9.00684C0.48584 13.6304 4.3291 17.4736 8.95264 17.4736ZM8.95264 16.0625C5.03467 16.0625 1.90527 12.9248 1.90527 9.00684C1.90527 5.08887 5.02637 1.95117 8.94434 1.95117C12.8623 1.95117 16 5.08887 16.0083 9.00684C16.0166 12.9248 12.8706 16.0625 8.95264 16.0625ZM8.03125 12.958C10.4219 12.958 11.8164 11.082 11.8164 9.58789C11.8164 9.24756 11.6172 9.02344 11.3267 9.02344C11.061 9.02344 10.8701 9.18945 10.812 9.57129C10.6626 10.7832 9.70801 11.8872 8.35498 11.8872V9.23926L10.0898 8.50879C10.2808 8.42578 10.3638 8.30957 10.3638 8.11865C10.3638 7.88623 10.2061 7.72021 9.97363 7.72021C9.90723 7.72021 9.83252 7.73682 9.76611 7.77002L8.35498 8.35938V7.5791L10.0898 6.84863C10.2808 6.76562 10.3638 6.64941 10.3638 6.4585C10.3638 6.22607 10.2061 6.06006 9.97363 6.06006C9.90723 6.06006 9.83252 6.07666 9.76611 6.10986L8.35498 6.69922V5.63672C8.35498 5.30469 8.15576 5.08887 7.84863 5.08887C7.5332 5.08887 7.33398 5.30469 7.33398 5.63672V7.12256L6.34619 7.5376C6.14697 7.62891 6.06396 7.74512 6.06396 7.92773C6.06396 8.16016 6.22998 8.33447 6.4624 8.33447C6.52881 8.33447 6.59521 8.30957 6.66992 8.28467L7.33398 8.00244V8.78271L6.34619 9.20605C6.14697 9.28906 6.06396 9.40527 6.06396 9.59619C6.06396 9.82861 6.22998 9.99463 6.4624 9.99463C6.52881 9.99463 6.59521 9.97803 6.66992 9.94482L7.33398 9.6626V12.2939C7.33398 12.6758 7.56641 12.958 8.03125 12.958Z" fill="#007AFF"/>
</svg>
